<?xml version="1.0" encoding="utf-8"?>
<!-- Generator: Adobe Illustrator 23.1.0, SVG Export Plug-In . SVG Version: 6.00 Build 0)  -->
<svg version="1.1" id="Слой_1" xmlns="http://www.w3.org/2000/svg" xmlns:xlink="http://www.w3.org/1999/xlink" x="0px" y="0px"
	 viewBox="0 0 22 22" style="enable-background:new 0 0 22 22;" xml:space="preserve">
<style type="text/css">
	.st0{fill-rule:evenodd;clip-rule:evenodd;fill:#191717;}
</style>
<path class="st0" d="M11,0C4.9,0,0,4.9,0,11c0,4.9,3.2,9,7.5,10.4c0.5,0.1,0.7-0.2,0.7-0.5c0-0.3,0-1,0-1.9
	c-3.1,0.7-3.7-1.5-3.7-1.5C4.1,16.3,3.3,16,3.3,16c-1-0.7,0.1-0.7,0.1-0.7c1.1,0.1,1.7,1.1,1.7,1.1c1,1.7,2.6,1.2,3.2,0.9
	c0.1-0.7,0.4-1.2,0.7-1.5c-2.4-0.3-5-1.2-5-5.4c0-1.2,0.4-2.2,1.1-3C5,7.2,4.6,6.1,5.2,4.6c0,0,0.9-0.3,3,1.1
	c0.9-0.2,1.8-0.4,2.8-0.4c0.9,0,1.9,0.1,2.8,0.4c2.1-1.4,3-1.1,3-1.1c0.6,1.5,0.2,2.6,0.1,2.9c0.7,0.8,1.1,1.7,1.1,3
	c0,4.2-2.6,5.2-5,5.4c0.4,0.3,0.7,1,0.7,2c0,1.5,0,2.7,0,3c0,0.3,0.2,0.6,0.8,0.5C18.9,20,22,15.9,22,11C22,4.9,17.1,0,11,0z"/>
</svg>
