<?xml version="1.0" encoding="utf-8"?>
<!-- Generator: Adobe Illustrator 23.1.0, SVG Export Plug-In . SVG Version: 6.00 Build 0)  -->
<svg version="1.1" id="Слой_1" xmlns="http://www.w3.org/2000/svg" xmlns:xlink="http://www.w3.org/1999/xlink" x="0px" y="0px"
	 viewBox="0 0 100 100" style="enable-background:new 0 0 100 100;" xml:space="preserve">
<style type="text/css">
	.st0{fill:#D1D2D6;}
</style>
<path class="st0" d="M6,6v88h88V6H6z M53.9,74.6c0,8.6-5,12.5-12.3,12.5c-6.6,0-10.5-3.4-12.4-7.6l0,0l0,0c0,0,0,0,0,0l6.7-4.1
	c1.3,2.3,2.5,4.3,5.3,4.3c2.7,0,4.4-1.1,4.4-5.2V46.4h8.3V74.6z M73.4,87.1c-7.7,0-12.6-3.7-15.1-8.4h0l6.7-3.9c1.8,2.9,4.1,5,8.2,5
	c3.4,0,5.6-1.7,5.6-4.1c0-2.8-2.2-3.8-6-5.5l-2.1-0.9c-6-2.5-9.9-5.7-9.9-12.5c0-6.2,4.7-10.9,12.1-10.9c5.3,0,9,1.8,11.8,6.6
	l-6.4,4.1c-1.4-2.5-3-3.5-5.3-3.5c-2.4,0-4,1.5-4,3.5c0,2.5,1.5,3.5,5.1,5l2.1,0.9c7,3,11,6.1,11,13C87.1,83,81.3,87.1,73.4,87.1z"
	/>
</svg>
