<?xml version="1.0" encoding="utf-8"?>
<!-- Generator: Adobe Illustrator 23.1.0, SVG Export Plug-In . SVG Version: 6.00 Build 0)  -->
<svg version="1.1" id="Слой_1" xmlns="http://www.w3.org/2000/svg" xmlns:xlink="http://www.w3.org/1999/xlink" x="0px" y="0px"
	 viewBox="0 0 100 100" style="enable-background:new 0 0 100 100;" xml:space="preserve">
<style type="text/css">
	.st0{fill:#D1D2D6;}
</style>
<path class="st0" d="M91.5,76.5L51.7,99V81.5l24.7-13.6L91.5,76.5z M94.2,74.1v-47l-14.5,8.4v30.2L94.2,74.1z M8.5,76.5L48.3,99
	V81.5L23.5,67.9L8.5,76.5z M5.8,74.1v-47l14.5,8.4v30.2L5.8,74.1z M7.5,24L48.3,1v16.9L22.2,32.3l-0.2,0.1L7.5,24z M92.5,24L51.7,1
	v16.9l26.1,14.3l0.2,0.1L92.5,24z"/>
<path class="st0" d="M48.3,77.5L23.8,64.1V37.5l24.4,14.1V77.5z M51.7,77.5l24.4-13.4V37.5L51.7,51.6V77.5z M25.5,34.4L50,20.9
	l24.5,13.5L50,48.6L25.5,34.4z"/>
</svg>
